{"title":"Asher Monroe ft. Chris Brown - Memory 2014 HD 720p x264 AAC E-Su","uid":9630871,"size":55005233,"categoryP":"video","categoryS":"music_videos","magnet":"?xt=urn:btih:66e0fc1b78b201e8eefa9185e5cbdb587f47b81c&amp;dn=Asher+Monroe+ft.+Chris+Brown+-+Memory+2014+HD+720p+x264+AAC+E-Su&amp;tr=udp%3A%2F%2Ftracker.openbittorrent.com%3A80&amp;tr=udp%3A%2F%2Fopen.demonii.com%3A1337&amp;tr=udp%3A%2F%2Ftracker.coppersurfer.tk%3A6969&amp;tr=udp%3A%2F%2Fexodus.desync.com%3A6969","seeders":1,"leechers":0,"uploader":"canc232","files":1,"time":1392784351,"description":"Asher Monroe ft. Chris Brown - Memory 2014 HD 720p x264 AAC E-Subs [GWC]\n\n\nCOVER : &lt;a href=&quot;\nhttp://s20.postimg.org/bc0cljzwd/ASHMAN.jpg&quot; rel=&quot;nofollow&quot; target=&quot;_NEW&quot;&gt;\nhttp://s20.postimg.org/bc0cljzwd/ASHMAN.jpg&lt;/a&gt;\n\n\nTHUMBNAIL IMAGE : &lt;a href=&quot;\nhttp://img203.imageshack.us/img203/1554/a963.jpg&quot; rel=&quot;nofollow&quot; target=&quot;_NEW&quot;&gt;\nhttp://img203.imageshack.us/img203/1554/a963.jpg&lt;/a&gt;\n\n\nMEDIA INFO :\nGeneral \nFormat : MPEG-4 \nFormat profile : Base Media \nFile size : 52.5 MiB \nDuration : 3mn 39s \nOverall bit rate mode : Variable \nOverall bit rate : 2 001 Kbps \n\nVideo \nFormat : AVC \nFormat profile : &lt;a class=&quot;__cf_email__&quot; href=&quot;/cdn-cgi/l/email-protection&quot; data-cfemail=&quot;95d8f4fcfbd5d9a6bba4&quot;&gt;[email&amp;#160;protected]&lt;/a&gt;&lt;script cf-hash='f9e31' type=&quot;text/javascript&quot;&gt;\n/* &lt;![CDATA[ */!function(){try{var t=&quot;currentScript&quot;in document?document.currentScript:function(){for(var t=document.getElementsByTagName(&quot;script&quot;),e=t.length;e--;)if(t[e].getAttribute(&quot;cf-hash&quot;))return t[e]}();if(t&amp;&amp;t.previousSibling){var e,r,n,i,c=t.previousSibling,a=c.getAttribute(&quot;data-cfemail&quot;);if(a){for(e=&quot;&quot;,r=parseInt(a.substr(0,2),16),n=2;a.length-n;n+=2)i=parseInt(a.substr(n,2),16)^r,e+=String.fromCharCode(i);e=document.createTextNode(e),c.parentNode.replaceChild(e,c)}}}catch(u){}}();/* ]]&gt; */&lt;/script&gt; \nFormat settings, CABAC : Yes \nFormat settings, ReFrames : 3 frames \nDuration : 3mn 39s \nSource duration : 3mn 39s \nBit rate : 1 911 Kbps \nMaximum bit rate : 5 117 Kbps \nWidth : 1 280 pixels \nHeight : 720 pixels \nDisplay aspect ratio : 16:9 \nFrame rate mode : Constant \nFrame rate : 23.976 fps \nStream size : 50.1 MiB (95%) \nTitle : Asher Monroe ft. Chris Brown - Memory 2014 HD 720p x264 AAC E-Subs [GWC] \n\nAudio \nID : 2 \nFormat : AAC \nFormat profile : LC \nDuration : 3mn 39s \nBit rate mode : Variable \nChannel(s) : 2 channels \nSampling rate : 48.0 KHz \nStream size : 2.27 MiB (4%) \nLanguage : English  \n\nText \nFormat : Timed Text \nTitle : English Subtitle by [GWC] \nLanguage : English ","torrent":{"xt":"urn:btih:66e0fc1b78b201e8eefa9185e5cbdb587f47b81c","amp;dn":"Asher+Monroe+ft.+Chris+Brown+-+Memory+2014+HD+720p+x264+AAC+E-Su","amp;tr":["udp%3A%2F%2Ftracker.openbittorrent.com%3A80","udp%3A%2F%2Fopen.demonii.com%3A1337","udp%3A%2F%2Ftracker.coppersurfer.tk%3A6969","udp%3A%2F%2Fexodus.desync.com%3A6969"],"infoHash":"66e0fc1b78b201e8eefa9185e5cbdb587f47b81c","infoHashBuffer":{"type":"Buffer","data":[102,224,252,27,120,178,1,232,238,250,145,133,229,203,219,88,127,71,184,28]},"announce":[],"urlList":[]}}